<svg width="37" height="50" viewBox="0 0 37 50" fill="none" xmlns="http://www.w3.org/2000/svg">
<g opacity="0.25">
<path d="M17.3053 0.0404355C14.7448 0.284217 12.0157 1.46562 9.4429 3.43775C6.04003 6.05059 3.53152 9.66043 2.75967 13.0609C2.50238 14.1923 1.99394 17.7146 1.8653 19.2492L1.84692 19.4867L1.65703 19.5398C1.55595 19.568 1.33848 19.6586 1.17921 19.7367C0.637082 20.0086 0.214403 20.54 0.0520692 21.1525C0.0122516 21.3119 0 21.4776 0 21.9183C0.00306289 22.5965 0.0643208 23.0028 0.294038 23.8341C0.459434 24.4311 0.50844 24.7092 0.58195 25.4812C0.686088 26.5282 0.817793 27.4565 0.934182 27.9347C0.964811 28.0628 1.04138 28.4503 1.09958 28.7973C1.30173 29.9505 1.41812 30.2818 1.92043 31.1069C2.34618 31.8039 2.87299 32.2602 3.48557 32.454C3.58052 32.4852 3.66016 32.5196 3.66016 32.5352C3.66016 32.6571 3.88681 34.8199 3.93582 35.1637C4.09509 36.2764 4.33093 37.2452 4.60047 37.9203C4.87613 38.5985 6.04309 41.0176 6.46883 41.7958C8.1473 44.8337 10.1443 47.0902 12.3588 48.4435C13.4032 49.0843 14.5916 49.5749 15.6759 49.8125C16.5121 49.9969 16.5458 50 18.2089 50C19.8721 50 19.9057 49.9969 20.7419 49.8125C23.5108 49.203 26.1204 47.3465 28.2276 44.4899C28.8065 43.7086 29.4467 42.7022 29.949 41.7958C30.4023 40.9738 31.6213 38.4391 31.8663 37.8047C32.2706 36.7608 32.5065 35.5325 32.6933 33.501C32.7423 32.9634 32.7944 32.5102 32.8097 32.4977C32.822 32.4884 32.9169 32.4446 33.018 32.4071C33.7225 32.1414 34.3657 31.4289 34.8404 30.3975C35.0487 29.938 35.1161 29.6911 35.2815 28.7441C35.3397 28.4097 35.4254 27.9815 35.4683 27.794C35.5694 27.3377 35.646 26.7939 35.7899 25.5125C35.9002 24.5123 35.9155 24.4155 36.0625 23.8904C36.2555 23.1903 36.332 22.7902 36.3719 22.2277C36.4362 21.3651 36.3014 20.8244 35.894 20.3024C35.6521 19.9899 35.1651 19.668 34.7424 19.5429L34.5739 19.4929L34.5525 19.2367C34.433 17.7115 33.894 14.0266 33.6306 12.9421C33.0302 10.4355 31.5386 7.86957 29.364 5.58177C27.5109 3.63777 25.226 2.02194 22.9717 1.06244C20.9839 0.218584 19.0757 -0.125211 17.3053 0.0404355ZM11.201 7.65392C11.4828 7.71642 11.8993 7.9102 12.6283 8.31963C14.4569 9.34476 15.4737 9.71981 16.9837 9.92296C17.5412 9.99797 18.8429 9.99797 19.4187 9.91983C20.9165 9.72293 21.9487 9.35414 23.6639 8.40714C25.1402 7.59453 25.4526 7.53203 26.2 7.91645C27.6824 8.67592 28.7606 10.0105 29.3395 11.8076C29.5998 12.6171 29.7039 13.1921 29.7591 14.1204C29.7774 14.4204 29.7958 14.7236 29.802 14.7923C29.805 14.8611 29.8601 15.0861 29.9183 15.2924C30.2461 16.4082 30.5799 18.0334 30.7484 19.3085C30.8832 20.3399 30.9659 21.7057 30.9444 22.6215L30.9352 23.1059L30.3073 24.2561L29.6794 25.4031L29.2813 25.3968L28.8861 25.3875L28.8586 25.2781C28.5737 24.1717 27.9121 23.1809 27.0453 22.5683C26.883 22.4527 26.8432 22.4027 26.9106 22.4027C26.9963 22.4027 27.6886 22.0495 27.854 21.9214C28.0775 21.7464 28.7024 21.1307 28.6809 21.1057C28.6564 21.0838 27.7927 20.9463 27.2169 20.8712C25.9519 20.7118 24.0897 20.8587 22.8186 21.2182C22.4051 21.3369 21.9395 21.5213 21.6547 21.6776L21.4403 21.7964L21.4158 22.0464C21.4035 22.1808 21.4035 22.4027 21.4127 22.5371L21.428 22.7777L21.1493 23.0622C20.5643 23.656 20.1722 24.3373 19.9394 25.1749C19.9302 25.1999 19.8414 25.1812 19.6515 25.1187C19.1676 24.9624 18.8705 24.9186 18.2089 24.9186C17.5473 24.9186 17.2502 24.9624 16.7663 25.1187C16.5764 25.1812 16.4876 25.1999 16.4784 25.1749C16.2456 24.3373 15.8535 23.656 15.2685 23.0622L14.9898 22.7777L15.0051 22.5371C15.0143 22.4027 15.0143 22.1808 15.0021 22.0464L14.9775 21.7964L14.7631 21.6776C14.4783 21.5213 14.0127 21.3369 13.5992 21.2182C12.3251 20.8587 10.4506 20.7118 9.19787 20.8744C8.62817 20.9463 7.75831 21.0838 7.73993 21.1057C7.71849 21.1275 8.279 21.6839 8.52097 21.8839C8.66799 22.0026 8.86401 22.1214 9.10904 22.2339C9.3112 22.3277 9.49191 22.4027 9.50722 22.4027C9.5746 22.4027 9.53479 22.4527 9.37245 22.5683C8.50565 23.1809 7.84407 24.1717 7.55922 25.2781L7.53165 25.3875L7.13654 25.3968L6.73837 25.4031L6.08903 24.2092L5.43664 23.0121V22.2058C5.43664 20.7775 5.57753 19.3398 5.86544 17.7927C6.01859 16.9832 6.2483 15.9987 6.41676 15.433C6.58522 14.8736 6.6281 14.6236 6.66179 14.0266C6.72611 12.8421 6.96808 11.8638 7.43977 10.8543C8.00028 9.66043 8.82726 8.67905 9.78594 8.06647C10.0402 7.90395 10.4077 7.7133 10.567 7.66329C10.7232 7.61329 10.9927 7.61016 11.201 7.65392ZM3.06902 21.5057C3.15784 21.5526 3.24054 21.6151 3.25586 21.6432C3.27117 21.6745 3.29261 21.8464 3.3018 22.0276C3.31405 22.2089 3.35693 22.6027 3.39981 22.9028C3.44269 23.2028 3.4917 23.6966 3.50701 23.9966C3.56827 25.078 3.86843 26.997 4.39525 29.6661C4.47795 30.0974 4.5484 30.4569 4.5484 30.4662C4.5484 30.4787 4.44426 30.5037 4.31562 30.5225C4.05221 30.5662 4.01852 30.5537 3.83474 30.3756C3.72142 30.2693 3.46413 29.8755 3.32937 29.6036C3.21604 29.3786 3.14253 29.0911 3.02001 28.3878C2.95263 28.0097 2.86074 27.544 2.82092 27.3565C2.7321 26.9689 2.62184 26.1626 2.52689 25.2312C2.435 24.3154 2.39212 24.0717 2.2206 23.4528C2.1379 23.1434 2.04601 22.7777 2.01845 22.6402C1.96331 22.3464 1.92656 21.762 1.95719 21.6432C1.99394 21.4901 2.2696 21.3994 2.6494 21.4151C2.86074 21.4213 2.94038 21.4401 3.06902 21.5057ZM34.2493 21.4995C34.4361 21.5963 34.4514 21.6588 34.4116 22.1214C34.3718 22.5965 34.3442 22.734 34.1635 23.3934C33.9797 24.0685 33.946 24.2686 33.845 25.2312C33.7194 26.4595 33.6367 27.0314 33.5234 27.4971C33.4927 27.6252 33.4162 28.019 33.3549 28.3722C33.1987 29.2848 33.1374 29.4786 32.8403 29.9662C32.5463 30.4506 32.3595 30.5912 32.0011 30.5912C31.8572 30.5912 31.8081 30.5787 31.8081 30.5475C31.8081 30.5256 31.8633 30.235 31.9307 29.9005C32.0777 29.1911 32.4085 27.3846 32.5586 26.4845C32.7209 25.5062 32.8189 24.728 32.8648 24.0123C32.8893 23.6497 32.9445 23.109 32.9874 22.809C33.0272 22.509 33.0731 22.1214 33.0823 21.9464C33.1038 21.6338 33.1038 21.6307 33.2048 21.562C33.3763 21.4401 33.5448 21.4026 33.8358 21.4151C34.0379 21.4244 34.1359 21.4432 34.2493 21.4995ZM12.0372 22.7621C12.4507 22.8121 12.9959 22.9184 13.4124 23.0278C13.8198 23.134 14.2302 23.4059 14.6437 23.8466C15.7157 24.9874 15.9577 26.6689 15.2563 28.0847C14.904 28.791 14.2241 29.4505 13.5319 29.7599C13.0449 29.9755 12.711 30.0568 12.1873 30.0818C11.1551 30.1318 10.2209 29.7568 9.47659 29.0004C7.81038 27.2971 8.15342 24.4748 10.178 23.2215C10.5241 23.0059 11.1152 22.7934 11.5165 22.7371C11.5685 22.7309 11.6145 22.7215 11.6237 22.7215C11.6329 22.7184 11.8197 22.7371 12.0372 22.7621ZM25.2505 22.8121C25.5384 22.8809 25.9917 23.0684 26.2398 23.2215C27.8203 24.1998 28.4359 26.2032 27.6824 27.919C27.3333 28.716 26.6165 29.438 25.8416 29.7786C25.3026 30.0162 24.8064 30.1099 24.2305 30.0818C23.2964 30.0381 22.5061 29.688 21.8537 29.0317C20.7725 27.944 20.4693 26.3657 21.0635 24.9343C21.3545 24.2279 21.9426 23.5591 22.595 23.1872C22.8461 23.0434 23.6241 22.8559 24.3623 22.7621C24.7267 22.7152 24.8799 22.7246 25.2505 22.8121ZM5.87463 25.8719C6.04921 26.2001 6.15948 26.3251 6.31262 26.3688C6.38001 26.3876 6.6526 26.4032 6.9252 26.4032H7.41526L7.45202 26.8001C7.4949 27.2502 7.57147 27.6096 7.70318 27.9878C8.15342 29.2661 9.16418 30.3131 10.42 30.7944C11.397 31.1694 12.5364 31.1851 13.538 30.835C14.757 30.41 15.7953 29.4098 16.2823 28.1972C16.4967 27.6596 16.5948 27.2064 16.6346 26.5689L16.656 26.2157L16.8275 26.1501C17.6851 25.8219 18.7327 25.8219 19.5903 26.1501L19.7618 26.2157L19.7832 26.5689C19.8629 27.8721 20.3254 28.9254 21.2075 29.788C22.0283 30.5912 23.0544 31.0351 24.206 31.0819C26.0407 31.1569 27.6916 30.1506 28.5278 28.441C28.7606 27.9659 28.9076 27.4127 28.9658 26.8033L29.0025 26.4095L29.5569 26.397C30.2583 26.3845 30.2706 26.3782 30.5279 25.9C30.6259 25.7219 30.7055 25.5969 30.7055 25.6281C30.7055 25.6562 30.6289 26.1375 30.537 26.697C30.096 29.3786 29.5539 31.8758 29.0699 33.4541C29.0148 33.6416 28.9566 33.851 28.9443 33.9198C28.9198 34.0636 28.7973 34.1792 28.1572 34.6574C27.952 34.8137 27.7284 34.9949 27.6641 35.0574C27.4497 35.2637 27.4405 35.2919 27.0637 36.8889C26.6962 38.4516 26.5308 39.0111 26.2766 39.5455C26.0438 40.0393 25.8202 40.28 25.5905 40.2862C25.4771 40.2894 25.419 40.2394 25.3301 40.0643C25.1923 39.7799 25.1127 39.4361 24.8554 37.9828C24.7237 37.2484 24.7267 37.2546 24.543 37.0733C23.8569 36.392 22.3009 35.9076 20.8093 35.9044C20.1998 35.9044 20.0252 35.9982 19.6944 36.4983C19.3238 37.0546 19.0696 37.2296 18.5519 37.2765C18.0404 37.3202 17.6361 37.2296 17.3544 37.0014C17.29 36.9483 17.143 36.7702 17.0266 36.6014C16.6254 36.0232 16.4876 35.9326 15.9485 35.9107C15.5136 35.8919 14.855 35.9482 14.3221 36.0482C13.1674 36.2639 12.0372 36.8639 11.8871 37.339C11.8595 37.4171 11.7584 37.8984 11.6574 38.4048C11.5532 38.9111 11.4307 39.483 11.3786 39.6705C11.2837 40.0175 11.1612 40.2769 11.0938 40.2831C10.7967 40.3113 10.5333 40.0643 10.276 39.5143C10.0187 38.9642 9.85639 38.3923 9.51335 36.8171C9.253 35.6388 9.19174 35.395 9.10292 35.2325C9.05391 35.1418 8.88545 34.9918 8.48421 34.6855C8.18099 34.4542 7.81038 34.1448 7.66336 33.9979C7.4122 33.751 7.3877 33.7167 7.31725 33.4979C6.91908 32.2696 6.3555 29.738 5.9267 27.2471C5.82869 26.6751 5.65104 25.5656 5.65104 25.5125C5.65104 25.4687 5.71536 25.5719 5.87463 25.8719ZM16.6009 39.1392C18.068 39.3361 18.5673 39.3361 19.9548 39.1392C20.8951 39.0048 21.3422 38.9767 21.7159 39.0267C22.4357 39.1236 22.9043 39.3736 23.1034 39.7643C23.1739 39.8987 23.1861 39.9612 23.1861 40.1862C23.1861 40.4144 23.1739 40.4769 23.1003 40.63C22.9411 40.9582 22.6532 41.1551 22.2887 41.1801C22.0988 41.1926 22.0345 41.1832 21.8292 41.1051C21.6179 41.0238 21.5597 41.0145 21.2412 41.0176C21.0237 41.0207 20.5826 41.0645 20.0803 41.1364C18.6714 41.3364 17.9486 41.3364 16.4722 41.1364C15.9301 41.0613 15.486 41.0207 15.2532 41.0176C14.9224 41.0145 14.8673 41.0238 14.7172 41.0926C14.4814 41.202 14.0617 41.2051 13.8657 41.0989C13.6636 40.9895 13.5012 40.8238 13.4093 40.63C13.3389 40.48 13.3236 40.4113 13.3236 40.2019C13.3236 39.6674 13.6237 39.3361 14.3037 39.1205C14.7815 38.9705 15.3819 38.9736 16.6009 39.1392Z" fill="url(#paint0_linear)"/>
<path d="M11.1992 23.6156C10.8899 23.7781 10.6694 24.0656 10.6235 24.3687C10.602 24.5062 10.6357 24.7906 10.7184 25.1531C10.8042 25.5219 11.0798 25.8781 11.4473 26.0906C12.0598 26.4406 12.8806 26.3219 13.3736 25.8062C13.8177 25.3406 13.9157 24.7031 13.6278 24.1718C13.5053 23.9468 13.3522 23.7906 13.1102 23.6437C12.8683 23.4937 12.8407 23.5 12.9265 23.6781C13.0122 23.8468 13.0245 24.1281 12.9571 24.2937C12.7397 24.825 11.9863 24.9594 11.5055 24.5469C11.2727 24.35 11.1747 23.8687 11.3156 23.6312C11.3493 23.5781 11.3707 23.5312 11.3677 23.5312C11.3615 23.5312 11.285 23.5687 11.1992 23.6156Z" fill="url(#paint1_linear)"/>
<path d="M23.302 23.6438C22.9651 23.85 22.7538 24.1282 22.6619 24.4844C22.6007 24.7344 22.6038 24.9219 22.6803 25.1751C22.763 25.4469 22.8518 25.6063 23.0386 25.8032C23.4398 26.2313 24.0829 26.3969 24.6526 26.2251C25.1487 26.0719 25.556 25.6626 25.6877 25.1876C25.7796 24.8626 25.8133 24.4875 25.7734 24.3C25.7091 24.0032 25.4243 23.6844 25.1119 23.5625L25.0384 23.5344L25.0966 23.6344C25.1426 23.7063 25.1579 23.7907 25.1579 23.9407C25.1579 24.3719 24.8608 24.7063 24.4198 24.7782C24.2361 24.8094 23.9666 24.7688 23.8134 24.6875C23.6756 24.6188 23.5133 24.4375 23.4551 24.2938C23.3878 24.1282 23.4 23.8469 23.4858 23.6782C23.5715 23.5 23.5439 23.4938 23.302 23.6438Z" fill="url(#paint2_linear)"/>
</g>
<defs>
<linearGradient id="paint0_linear" x1="-19.0811" y1="57.3276" x2="16.6643" y2="-0.938214" gradientUnits="userSpaceOnUse">
<stop stop-color="#7C7C7C"/>
<stop offset="1" stop-color="white"/>
</linearGradient>
<linearGradient id="paint1_linear" x1="8.95287" y1="26.6949" x2="10.4458" y2="22.8487" gradientUnits="userSpaceOnUse">
<stop stop-color="#7C7C7C"/>
<stop offset="1" stop-color="white"/>
</linearGradient>
<linearGradient id="paint2_linear" x1="20.9564" y1="26.6961" x2="22.4487" y2="22.8527" gradientUnits="userSpaceOnUse">
<stop stop-color="#7C7C7C"/>
<stop offset="1" stop-color="white"/>
</linearGradient>
</defs>
</svg>
