<svg width="36" height="50" viewBox="0 0 36 50" fill="none" xmlns="http://www.w3.org/2000/svg">
<path opacity="0.2" d="M33.5294 14.9623C33.5294 16.0926 32.6723 17.6534 32.6723 17.6534C32.6723 17.6534 32.7227 18.5145 33.479 19.9677C34.2353 21.4209 36 22.2282 36 23.8428C36 25.6728 33.4286 25.4037 33.4286 26.4263C33.4286 27.4489 34.8403 27.9871 34.8403 28.6329C34.8403 29.5479 33.479 29.7094 33.479 30.3014C33.479 30.6781 34.3361 30.8396 34.3361 31.4316C34.3361 32.3466 32.9244 32.7772 32.9244 33.4769C32.9244 34.1765 33.2269 34.3918 33.2269 35.3068C33.2269 36.9752 31.1597 37.6749 28.437 37.6749C25.7143 37.6749 23.7479 37.1367 23.7479 37.1367C21.7311 38.6437 19.8655 42.9494 19.8655 49.5156C19.8655 49.5156 18.2521 50 17.042 50C9.57983 50 11.7479 38.2131 2.77311 38.2131C4.13445 36.9752 6.5042 33.6921 6.5042 32.1851C6.5042 24.8116 0 23.197 0 15.9311C0 8.66523 3.88235 0 16.084 0C28.6891 0 33.5294 8.98816 33.5294 14.9623Z" fill="url(#paint0_linear)"/>
<defs>
<linearGradient id="paint0_linear" x1="-18.878" y1="-7.32759" x2="17.0393" y2="50.5957" gradientUnits="userSpaceOnUse">
<stop stop-color="#7C7C7C"/>
<stop offset="1" stop-color="white"/>
</linearGradient>
</defs>
</svg>
