<svg width="41" height="37" viewBox="0 0 41 37" fill="none" xmlns="http://www.w3.org/2000/svg">
<path opacity="0.25" d="M10.2638 0C9.81078 4.11682e-05 9.37631 0.162503 9.05596 0.451613C8.73561 0.740723 8.55562 1.1328 8.55557 1.54167V4.625H1.73257C1.50621 4.62211 1.28147 4.65985 1.07141 4.73603C0.861348 4.81221 0.670159 4.92531 0.508953 5.06876C0.347747 5.2122 0.219738 5.38313 0.132366 5.5716C0.0449934 5.76008 0 5.96236 0 6.16667C0 6.37098 0.0449934 6.57325 0.132366 6.76173C0.219738 6.95021 0.347747 7.12113 0.508953 7.26458C0.670159 7.40802 0.861348 7.52112 1.07141 7.5973C1.28147 7.67348 1.50621 7.71122 1.73257 7.70833H8.55557V10.7917C8.55562 11.2005 8.73561 11.5927 9.05596 11.8818C9.37631 12.1709 9.81078 12.3333 10.2638 12.3333H17.0868C17.5399 12.3333 17.9743 12.1709 18.2947 11.8818C18.615 11.5927 18.795 11.2005 18.7951 10.7917V7.70833H39.2674C39.4938 7.71122 39.7185 7.67348 39.9286 7.5973C40.1387 7.52112 40.3298 7.40802 40.491 7.26458C40.6523 7.12113 40.7803 6.95021 40.8676 6.76173C40.955 6.57325 41 6.37098 41 6.16667C41 5.96236 40.955 5.76008 40.8676 5.5716C40.7803 5.38313 40.6523 5.2122 40.491 5.06876C40.3298 4.92531 40.1387 4.81221 39.9286 4.73603C39.7185 4.65985 39.4938 4.62211 39.2674 4.625H18.7951V1.54167C18.795 1.1328 18.615 0.740723 18.2947 0.451613C17.9743 0.162503 17.5399 4.08821e-05 17.0868 0H10.2638ZM11.9721 3.08333H15.3786V5.92879C15.3506 6.08839 15.3506 6.25096 15.3786 6.41056V9.25H11.9721V6.42562C12.0026 6.25913 12.0026 6.08926 11.9721 5.92277V3.08333ZM23.9132 12.3333C23.4601 12.3334 23.0257 12.4958 22.7053 12.7849C22.385 13.0741 22.205 13.4661 22.2049 13.875V16.9583H1.73257C1.50621 16.9554 1.28147 16.9932 1.07141 17.0694C0.861348 17.1455 0.670159 17.2586 0.508953 17.4021C0.347747 17.5455 0.219738 17.7165 0.132366 17.9049C0.0449934 18.0934 0 18.2957 0 18.5C0 18.7043 0.0449934 18.9066 0.132366 19.0951C0.219738 19.2835 0.347747 19.4545 0.508953 19.5979C0.670159 19.7414 0.861348 19.8545 1.07141 19.9306C1.28147 20.0068 1.50621 20.0446 1.73257 20.0417H22.2049V23.125C22.205 23.5339 22.385 23.926 22.7053 24.2151C23.0257 24.5042 23.4601 24.6666 23.9132 24.6667H30.7362C31.1892 24.6666 31.6237 24.5042 31.944 24.2151C32.2644 23.926 32.4444 23.5339 32.4444 23.125V20.0417H39.2674C39.4938 20.0446 39.7185 20.0068 39.9286 19.9306C40.1387 19.8545 40.3298 19.7414 40.491 19.5979C40.6523 19.4545 40.7803 19.2835 40.8676 19.0951C40.955 18.9066 41 18.7043 41 18.5C41 18.2957 40.955 18.0934 40.8676 17.9049C40.7803 17.7165 40.6523 17.5455 40.491 17.4021C40.3298 17.2586 40.1387 17.1455 39.9286 17.0694C39.7185 16.9932 39.4938 16.9554 39.2674 16.9583H32.4444V13.875C32.4444 13.4661 32.2644 13.0741 31.944 12.7849C31.6237 12.4958 31.1892 12.3334 30.7362 12.3333H23.9132ZM25.6214 15.4167H29.0279V18.2441C28.9978 18.4096 28.9978 18.5784 29.0279 18.7439V21.5833H25.6214V18.7409C25.6497 18.5803 25.6497 18.4167 25.6214 18.2561V15.4167ZM10.2638 24.6667C9.81078 24.6667 9.37631 24.8292 9.05596 25.1183C8.73561 25.4074 8.55562 25.7995 8.55557 26.2083V29.2917H1.73257C1.50621 29.2888 1.28147 29.3265 1.07141 29.4027C0.861348 29.4789 0.670159 29.592 0.508953 29.7354C0.347747 29.8789 0.219738 30.0498 0.132366 30.2383C0.0449934 30.4268 0 30.629 0 30.8333C0 31.0376 0.0449934 31.2399 0.132366 31.4284C0.219738 31.6169 0.347747 31.7878 0.508953 31.9312C0.670159 32.0747 0.861348 32.1878 1.07141 32.264C1.28147 32.3401 1.50621 32.3779 1.73257 32.375H8.55557V35.4583C8.55562 35.8672 8.73561 36.2593 9.05596 36.5484C9.37631 36.8375 9.81078 37 10.2638 37H17.0868C17.5399 37 17.9743 36.8375 18.2947 36.5484C18.615 36.2593 18.795 35.8672 18.7951 35.4583V32.375H39.2674C39.4938 32.3779 39.7185 32.3401 39.9286 32.264C40.1387 32.1878 40.3298 32.0747 40.491 31.9312C40.6523 31.7878 40.7803 31.6169 40.8676 31.4284C40.955 31.2399 41 31.0376 41 30.8333C41 30.629 40.955 30.4268 40.8676 30.2383C40.7803 30.0498 40.6523 29.8789 40.491 29.7354C40.3298 29.592 40.1387 29.4789 39.9286 29.4027C39.7185 29.3265 39.4938 29.2888 39.2674 29.2917H18.7951V26.2083C18.795 25.7995 18.615 25.4074 18.2947 25.1183C17.9743 24.8292 17.5399 24.6667 17.0868 24.6667H10.2638ZM11.9721 27.75H15.3786V30.5955C15.3506 30.7551 15.3506 30.9176 15.3786 31.0772V33.9167H11.9721V31.0923C12.0026 30.9258 12.0026 30.7559 11.9721 30.5894V27.75Z" fill="url(#paint0_linear)"/>
<defs>
<linearGradient id="paint0_linear" x1="-21.5" y1="-5.42241" x2="-0.929213" y2="45.6339" gradientUnits="userSpaceOnUse">
<stop stop-color="#7C7C7C"/>
<stop offset="1" stop-color="white"/>
</linearGradient>
</defs>
</svg>
