<svg width="553" height="690" viewBox="0 0 553 690" fill="none" xmlns="http://www.w3.org/2000/svg">
<mask id="mask0" mask-type="alpha" maskUnits="userSpaceOnUse" x="0" y="0" width="551" height="690">
<path d="M0 680V10C0 4.47715 4.47717 0 10 0H367.185C371.745 0 375.728 3.08543 376.867 7.50119L549.774 677.501C551.408 683.831 546.629 690 540.092 690H10C4.47717 690 0 685.523 0 680Z" fill="#C4C4C4"/>
</mask>
<g mask="url(#mask0)">
<path opacity="0.15" d="M-75 15C-75 6.71574 -68.2843 0 -60 0H626C639.807 0 651 11.1929 651 25V696C651 704.284 644.284 711 636 711H-75V15Z" fill="url(#paint0_linear)"/>
<path opacity="0.15" d="M5.49363 -34.5244C5.77611 -42.5996 12.4043 -49 20.4845 -49H571C584.807 -49 596 -37.8071 596 -24V645.634C596 654.433 588.461 661.342 579.696 660.577L-17 608.5L5.49363 -34.5244Z" fill="url(#paint1_linear)"/>
</g>
<defs>
<linearGradient id="paint0_linear" x1="349.5" y1="725" x2="-4.1976" y2="113.178" gradientUnits="userSpaceOnUse">
<stop stop-color="#D3DAFF"/>
<stop offset="0.305709" stop-color="#D3DAFF" stop-opacity="0"/>
</linearGradient>
<linearGradient id="paint1_linear" x1="509.857" y1="280.5" x2="604.508" y2="452.634" gradientUnits="userSpaceOnUse">
<stop stop-color="#3B4049"/>
<stop offset="0.426633" stop-color="#D3DAFF"/>
</linearGradient>
</defs>
</svg>
