<svg width="553" height="690" viewBox="0 0 553 690" fill="none" xmlns="http://www.w3.org/2000/svg">
<mask id="mask0" mask-type="alpha" maskUnits="userSpaceOnUse" x="2" y="0" width="552" height="690">
<path d="M553 680V10C553 4.47715 548.523 0 543 0H185.815C181.255 0 177.272 3.08543 176.133 7.50119L3.22557 677.501C1.59208 683.831 6.3713 690 12.9083 690H543C548.523 690 553 685.523 553 680Z" fill="#C4C4C4"/>
</mask>
<g mask="url(#mask0)">
<path opacity="0.15" d="M628 15C628 6.71574 621.284 0 613 0H-73C-86.8071 0 -98 11.1929 -98 25V696C-98 704.284 -91.2843 711 -83 711H628V15Z" fill="url(#paint0_linear)"/>
<path opacity="0.15" d="M547.506 -34.5244C547.224 -42.5996 540.596 -49 532.516 -49H-18C-31.8071 -49 -43 -37.8071 -43 -24V645.634C-43 654.433 -35.4615 661.342 -26.6958 660.577L570 608.5L547.506 -34.5244Z" fill="url(#paint1_linear)"/>
</g>
<defs>
<linearGradient id="paint0_linear" x1="203.5" y1="725" x2="557.198" y2="113.178" gradientUnits="userSpaceOnUse">
<stop stop-color="#D3DAFF"/>
<stop offset="0.305709" stop-color="#D3DAFF" stop-opacity="0"/>
</linearGradient>
<linearGradient id="paint1_linear" x1="43.1432" y1="280.5" x2="-51.5079" y2="452.634" gradientUnits="userSpaceOnUse">
<stop stop-color="#3B4049"/>
<stop offset="0.426633" stop-color="#D3DAFF"/>
</linearGradient>
</defs>
</svg>
