<svg width="20" height="21" viewBox="0 0 20 21" fill="none" xmlns="http://www.w3.org/2000/svg">
<path d="M15.8333 9.64087H4.16667C3.24619 9.64087 2.5 10.3878 2.5 11.3091V17.1478C2.5 18.0691 3.24619 18.816 4.16667 18.816H15.8333C16.7538 18.816 17.5 18.0691 17.5 17.1478V11.3091C17.5 10.3878 16.7538 9.64087 15.8333 9.64087Z" stroke="#AFAFAF" stroke-width="1.6" stroke-linecap="round" stroke-linejoin="round"/>
<path d="M5.83398 9.64098V6.30456C5.83398 5.19847 6.27297 4.13768 7.05437 3.35555C7.83577 2.57343 8.89558 2.13403 10.0007 2.13403C11.1057 2.13403 12.1655 2.57343 12.9469 3.35555C13.7283 4.13768 14.1673 5.19847 14.1673 6.30456V9.64098" stroke="#AFAFAF" stroke-width="1.6" stroke-linecap="round" stroke-linejoin="round"/>
</svg>
